<?xml version="1.0" encoding="utf-8"?>
<!-- Generator: Adobe Illustrator 16.0.0, SVG Export Plug-In . SVG Version: 6.00 Build 0)  -->
<!DOCTYPE svg PUBLIC "-//W3C//DTD SVG 1.1//EN" "http://www.w3.org/Graphics/SVG/1.1/DTD/svg11.dtd">
<svg version="1.1" id="Layer_1" xmlns="http://www.w3.org/2000/svg" xmlns:xlink="http://www.w3.org/1999/xlink" x="0px" y="0px"
	 width="438.813px" height="306.527px" viewBox="0 0 438.813 306.527" enable-background="new 0 0 438.813 306.527"
	 xml:space="preserve">
<path fill-rule="evenodd" clip-rule="evenodd" fill="#F79028" d="M417.649,120.225H317.173V59.303c0-5.76-3.124-11.062-8.146-13.867
	C257.494,16.709,239.107,1.58,222.479,0.066c-2.113-0.096-4.244-0.105-6.376,0.09c-16.411,1.928-35.03,17.018-85.708,45.279
	c-5.022,2.805-8.137,8.107-8.137,13.867v60.922H21.781c-11.697,0-21.164,9.467-21.164,21.158v114.908L0,279.553l0.494,26.271
	l187.842,0.312v-97.844c0,0,1.215-4.293,4.605-5.254h52c4.947,0.254,5.541,5.754,5.541,5.754v97.42l188.098,0.314l0.209-46.42
	l0.024-118.725C438.813,129.691,429.338,120.225,417.649,120.225z M89.045,264.82c0,6.627-5.373,12-12,12H50.89
	c-6.627,0-12-5.373-12-12v-15.906c0-6.627,5.373-12,12-12h26.155c6.627,0,12,5.373,12,12V264.82z M89.045,203.152
	c0,6.627-5.373,12-12,12H50.89c-6.627,0-12-5.373-12-12v-15.906c0-6.627,5.373-12,12-12h26.155c6.627,0,12,5.373,12,12V203.152z
	 M156.299,264.82c0,6.627-5.373,12-12,12h-26.156c-6.627,0-12-5.373-12-12v-15.906c0-6.627,5.373-12,12-12h26.156
	c6.627,0,12,5.373,12,12V264.82z M156.299,203.152c0,6.627-5.373,12-12,12h-26.156c-6.627,0-12-5.373-12-12v-15.906
	c0-6.627,5.373-12,12-12h26.156c6.627,0,12,5.373,12,12V203.152z M220.078,105.354c-14.183,0-25.68-11.496-25.68-25.679
	s11.497-25.68,25.68-25.68c14.182,0,25.68,11.497,25.68,25.68S234.26,105.354,220.078,105.354z M332.81,264.82
	c0,6.627-5.372,12-12,12h-26.154c-6.628,0-12-5.373-12-12v-15.906c0-6.627,5.372-12,12-12h26.154c6.628,0,12,5.373,12,12V264.82z
	 M332.811,203.152c0,6.627-5.372,12-12,12h-26.154c-6.628,0-12-5.373-12-12v-15.906c0-6.627,5.372-12,12-12h26.154
	c6.628,0,12,5.373,12,12V203.152z M400.061,264.82c0,6.627-5.372,12-12,12h-26.154c-6.628,0-12-5.373-12-12v-15.906
	c0-6.627,5.372-12,12-12h26.154c6.628,0,12,5.373,12,12V264.82z M400.061,203.152c0,6.627-5.372,12-12,12h-26.154
	c-6.628,0-12-5.373-12-12v-15.906c0-6.627,5.372-12,12-12h26.154c6.628,0,12,5.373,12,12V203.152z"/>
<g>
	<path fill="#AE5026" stroke="#FFFFFF" stroke-width="6" stroke-miterlimit="10" d="M77.832,246.461L275.549,80.496
		c94.295-16.667,85.363,56.937,85.363,56.937L163.193,303.4C163.193,303.4,73.415,318.996,77.832,246.461z"/>
	<path fill="#AD4E25" stroke="#FFFFFF" stroke-width="6" stroke-miterlimit="10" d="M360.98,246.46L163.265,80.495
		c-94.295-16.667-85.363,56.937-85.363,56.937l197.72,165.967C275.621,303.398,365.398,318.996,360.98,246.46z"/>
	<g>
		<g>
			<g>
				<path fill="#A94925" d="M200.038,146.231l-37.68,25.132c-4.029,2.688-4.311,7.37-0.631,10.458l64.411,54.067
					c3.681,3.09,9.929,3.416,13.957,0.728l37.681-25.132c4.027-2.687,4.311-7.368,0.632-10.458l-64.411-54.067
					C210.315,143.869,204.065,143.543,200.038,146.231z"/>
				<path fill="none" stroke="#FFFFFF" stroke-width="6" stroke-miterlimit="10" d="M200.038,146.231l-37.68,25.132
					c-4.029,2.688-4.311,7.37-0.631,10.458l64.411,54.067c3.681,3.09,9.929,3.416,13.957,0.728l37.681-25.132
					c4.027-2.687,4.311-7.368,0.632-10.458l-64.411-54.067C210.315,143.869,204.065,143.543,200.038,146.231z"/>
			</g>
		</g>
	</g>
</g>
</svg>
