<?xml version="1.0" encoding="utf-8"?>
<!-- Generator: Adobe Illustrator 16.0.0, SVG Export Plug-In . SVG Version: 6.00 Build 0)  -->
<!DOCTYPE svg PUBLIC "-//W3C//DTD SVG 1.1//EN" "http://www.w3.org/Graphics/SVG/1.1/DTD/svg11.dtd">
<svg version="1.1" id="Layer_1" xmlns="http://www.w3.org/2000/svg" xmlns:xlink="http://www.w3.org/1999/xlink" x="0px" y="0px"
	 width="438.803px" height="438.803px" viewBox="0 0 438.803 438.803" enable-background="new 0 0 438.803 438.803"
	 xml:space="preserve">
<path fill-rule="evenodd" clip-rule="evenodd" fill="#F79028" d="M417.644,186.362H317.167V125.44c0-5.76-3.124-11.062-8.146-13.867
	c-51.532-28.727-69.919-43.855-86.548-45.369c-2.113-0.096-4.244-0.105-6.376,0.09c-16.411,1.928-35.03,17.018-85.708,45.279
	c-5.022,2.805-8.137,8.107-8.137,13.867v60.922H21.775c-11.697,0-21.164,9.467-21.164,21.158v114.908l-0.617,23.262l0.494,26.271
	l187.842,0.312v-97.844c0,0,1.215-4.293,4.605-5.254h52c4.947,0.254,5.541,5.754,5.541,5.754v97.42l188.098,0.314l0.209-46.42
	l0.024-118.725C438.808,195.829,429.333,186.362,417.644,186.362z"/>
<g>
	<path fill="#AE5026" d="M77.827,312.599l197.717-165.965c94.295-16.667,85.363,56.937,85.363,56.937L163.188,369.538
		C163.188,369.538,73.409,385.133,77.827,312.599z"/>
	<path fill="#AD4E25" d="M360.975,312.598L163.259,146.633c-94.295-16.667-85.363,56.937-85.363,56.937l197.72,165.967
		C275.616,369.536,365.393,385.133,360.975,312.598z"/>
	<g>
		<g>
			<g>
				<path fill="#A94925" d="M200.032,212.369l-37.68,25.132c-4.029,2.688-4.311,7.37-0.631,10.458l64.411,54.067
					c3.681,3.09,9.929,3.416,13.957,0.728l37.681-25.132c4.027-2.687,4.311-7.368,0.632-10.458l-64.411-54.067
					C210.31,210.007,204.06,209.681,200.032,212.369z"/>
			</g>
		</g>
	</g>
</g>
</svg>
