<?xml version="1.0" encoding="utf-8"?>
<!-- Generator: Adobe Illustrator 16.0.0, SVG Export Plug-In . SVG Version: 6.00 Build 0)  -->
<!DOCTYPE svg PUBLIC "-//W3C//DTD SVG 1.1//EN" "http://www.w3.org/Graphics/SVG/1.1/DTD/svg11.dtd">
<svg version="1.1" id="Layer_1" xmlns="http://www.w3.org/2000/svg" xmlns:xlink="http://www.w3.org/1999/xlink" x="0px" y="0px"
	 width="400px" height="161.225px" viewBox="0 0 400 161.225" enable-background="new 0 0 400 161.225" xml:space="preserve">
<g>
	<path fill="#1F98C3" d="M197.398,97.516c3.761-0.195,7.539-0.469,11.195,0.754c4.707,1.574,6.718,4.529,6.457,9.506
		c-0.481,9.312-10.242,17.53-19.539,16.471c-0.859-0.097-1.832,0.021-1.86-1.237c-0.02-0.852-0.159-1.825,0.876-2.224
		c1.077-0.414,2.206-0.688,3.292-1.078c5.321-1.917,8.888-8.719,7.371-14.156c-0.917-3.283-3.554-3.691-6.469-3.92
		c-3.101-0.244-3.473,1.723-3.906,3.961c-2.065,10.644-4.145,21.284-6.316,31.901c-0.254,1.237,0.07,3.227-2.065,3.245
		c-2.293,0.023-4.684,0.575-6.849-0.359c-0.742-0.32-0.046-1.558,0.113-2.37c2.462-12.477,4.961-24.953,7.353-37.444
		c0.438-2.291,1.57-3.186,3.836-3.072C193.051,97.6,195.227,97.516,197.398,97.516"/>
	<path fill="#1F98C3" d="M196.41,35.17c-2.54,12.785-5.075,25.533-7.688,38.664c4.625,0,8.96-0.092,13.285,0.074
		c0.897,0.035,3.012-1.227,2.73,1.281c-0.172,1.504-0.461,3.076-2.81,3.037c-7.511-0.126-15.026-0.047-22.797-0.047
		c2.754-13.902,5.43-27.373,8.082-40.848c0.341-1.74,0.965-2.953,3.091-2.654C192.273,34.953,194.327,34.301,196.41,35.17"/>
	<path fill="#2098C3" d="M368.646,112.095c3.492-0.883,4.141,0.727,3.307,4.362c-1.861,8.161-3.305,16.419-5.064,24.606
		c-1.695,7.87-5.232,14.672-12.078,19.37c-0.85,0.583-1.6,1.317-2.6,0.239c-0.664-0.708-0.955-1.317-0.258-2.231
		c5.834-7.62,5.771-17.081,7.928-25.836c1.346-5.461,2.236-11.034,3.367-16.553C364.055,112.1,364.084,112.103,368.646,112.095"/>
	<path fill="#2098C3" d="M393.631,111.259c0.525,0.039,1.893-0.07,3.104,0.305c1.311,0.406,4.086-0.519,3.031,2.669
		c-0.729,2.201-1.158,4.612-4.549,2.815c-2.031-1.073-4.334-1.578-6.719-1.453c-1.734,0.091-2.648,1.039-3.053,2.575
		c-0.422,1.609,0.639,2.475,1.867,3.019c2.25,0.987,4.631,1.69,6.828,2.766c4.584,2.242,5.686,6.664,2.859,10.844
		c-4.258,6.3-14.752,8.898-21.477,5.406c-1.439-0.747-2.211-1.552-0.971-2.927c1.033-1.148,1.002-4.136,3.916-2.43
		c2.389,1.403,4.912,2.419,7.766,2.466c2.529,0.042,4.178-0.914,4.686-3.5c0.51-2.578-1.521-3.188-3.178-3.95
		c-1.969-0.906-4.127-1.417-6.031-2.425c-4.148-2.195-4.971-6.448-2.164-10.255C382.561,113.098,386.92,111.153,393.631,111.259"/>
	<path fill="#2098C4" d="M260.581,116.236c3.032-3.153,5.731-5.523,9.82-4.812c-0.543,5.583-0.546,5.562-5.687,5.93
		c-3.176,0.227-4.903,1.987-5.469,5.12c-0.793,4.398-2.203,8.742-2.474,13.161c-0.293,4.784-2.656,5.737-6.663,5.172
		c-0.969-0.138-1.949-0.188-3.133-0.297c1.727-8.547,3.718-16.828,4.973-25.224c0.694-4.636,3.738-2.797,6.09-3.186
		C261.386,111.545,260.104,114.244,260.581,116.236"/>
	<path fill="#2098C4" d="M302.984,48.887c-0.799,3.573-0.864,7.088-6.221,6.014c-2.998-0.602-4.808,1.934-5.357,5.052
		c-0.898,5.112-1.885,10.209-2.969,15.284c-0.236,1.113-0.016,2.879-1.911,2.892c-2.294,0.014-4.622,0.053-6.862-0.341
		c-0.807-0.143-0.135-1.496,0.021-2.288c1.518-7.637,3.346-15.228,4.461-22.922c0.633-4.34,3.474-2.693,5.727-3.119
		c3.336-0.629,2.721,1.814,2.716,4.212C295.683,50.678,298.42,48.027,302.984,48.887"/>
	<path fill="#2098C4" d="M340.092,140.353c1.719-8.653,3.492-17.289,5.109-25.953c0.344-1.849,1.189-2.403,2.914-2.32
		c1.867,0.089,3.742,0.019,6.242,0.019c-1.443,7.453-2.773,14.609-4.219,21.75C348.555,141.681,348.514,141.673,340.092,140.353"/>
	<linearGradient id="SVGID_1_" gradientUnits="userSpaceOnUse" x1="0" y1="119.5962" x2="151.9863" y2="119.5962">
		<stop  offset="0" style="stop-color:#C5E4F0"/>
		<stop  offset="1" style="stop-color:#56B1D3"/>
	</linearGradient>
	<path fill="url(#SVGID_1_)" d="M149.223,127.103c-2.821-2.88-5.497-5.867-8.126-8.894c-3.852-4.438-9.041-7.164-13.38-10.926
		c-3.109-2.691-6.008-3.004-9.473-1.416l-0.086,0.219c-1.443,0.176-3.068-0.777-4.301,0.695c-0.873-0.143-1.544-1.117-2.572-0.625
		c-1.137-0.592-2.219-1.938-3.516-0.248l0,0l0,0c-1.094-0.494-2.176-1.062-3.441-0.625c-0.823-0.43-1.495-1.314-2.609-0.867l0,0
		c-1.159-1.088-2.316-1.098-3.475,0c-1.033-0.791-2.142-1.287-3.478-0.873c-1.449-0.287-2.898-0.576-4.348-0.865
		c-1.449,0.139-2.898-1.203-4.35-0.002c0,0,0,0,0,0.002c0-0.002,0-0.002,0-0.002c-1.738-0.58-3.478-1.158-5.216-1.738
		c-1.741,1.352-3.48-0.658-5.221-0.002c-1.154-1.086-2.314-1.078-3.477-0.012v0.002c-1.029-0.816-2.158-1.234-3.48-0.873l0,0h-0.001
		c-1.145-0.074-2.289-0.148-3.434-0.223l0,0c-1.461-1.52-3.25-1.896-5.258-1.504l0,0c-1.241-1.129-2.803-1-4.307-1.109
		c-1.669-0.9-3.287-2.248-5.259-0.631c-1.045-0.795-2.178-1.242-3.512-0.881c-1.905-1.398-3.682-1.457-5.344,0.424
		c-0.565,0.641-1.172,1.191-2.23,0.877c-5.78-1.711-11.881-1.039-17.715-2.322c-3.105-0.684-6.297-0.789-9.433-1.408
		C8.368,92.526,4.344,90.445,0,92.012c1.985,2.482,4.422,2.979,7.829,2.648C6.504,95.776,4.88,95.53,4.828,96.5
		c3.559,2.777,7.328,4.588,11.711,4.758c3.017,0.117,6.587-0.906,7.568,3.635c0.077,0.355,1.28,0.646,1.965,0.662
		c3.213,0.074,5.816,2.139,8.92,2.751c-1.348-0.487-2.496,2.349-4.074-0.028c-0.379-0.57-1.729-1.389-2.807,0.653
		c-1.345,2.542,1.059,1.62,1.355,1.742c3.703,1.519,7.073,4.016,11.297,4.078c1.147,1.984-0.371,1.641-1.473,1.708
		c-2.677,0.167-5.087-1.286-8.285-1.606c1.789,2.722,4.031,3.258,6.377,3.281c2.501,0.023,4.738,0.753,6.902,1.883
		c1.212,1.43,2.875,0.5,4.301,0.823c0.883,2.023,2.75,1.63,4.392,1.786l0,0l0,0c1.598,1.047,3.452,1.206,5.264,1.508l0,0
		c1.234,1.144,2.809,0.992,4.306,1.128l0,0c0.602,1.102,1.725,0.599,2.604,0.849l0,0c0.896,1.339,2.34,0.5,3.48,0.87
		c1.602,1.036,3.451,1.203,5.263,1.497c1.577,0.492-0.5,3.508,2.217,3.211c-0.043,1.354,0.064,1.479,1.166,1.328
		c0.967,2.031,2.715,1.805,4.475,1.547c1.439,0.292,2.879,0.581,4.318,0.87c1.038,0.81,2.156,1.289,3.5,0.872
		c0.816,0.453,1.499,1.315,2.613,0.867l0,0l0,0c1.355,1.305,2.793,1.203,4.28,0.25l0,0l0,0c0.742,0.742,1.457,1.578,2.673,0.87l0,0
		c0.871,0.497,1.742,0.992,2.616,1.489c1.203,1.214,2.789,0.977,4.273,1.117c0.969,1.359,2.31,0.625,3.521,0.628
		c2.92,0.661,5.727,0.755,8.721-0.156c3.365-1.023,7.837-0.359,9.703,1.591c4.066,4.245,9.004,3.836,13.78,4.753
		c1.238,0.239,3.173-0.753,2.794-1.511c-1.923-3.844,2.312-3.672,3.262-5.552C152.688,136.247,153.468,131.434,149.223,127.103z"/>
	<path fill="#259AC5" d="M357.898,100.803c0.039,0.732-5.658,6-6.15,5.703c-2.014-1.221-4.398-3.482-4.068-5.121
		c0.5-2.457,3.484-4.596,5.811-5.107C355.438,95.848,356.537,99.186,357.898,100.803"/>
	<path fill="#259AC5" d="M376.219,100.784c-0.01,0.938-5.828,5.998-6.32,5.664c-1.93-1.301-4.525-3.793-3.961-5.105
		c0.961-2.225,3.607-4.58,5.93-5.082C373.693,95.868,374.82,99.297,376.219,100.784"/>
	<linearGradient id="SVGID_2_" gradientUnits="userSpaceOnUse" x1="28.2578" y1="93.4868" x2="33.5117" y2="93.4868">
		<stop  offset="0" style="stop-color:#FFFFFF"/>
		<stop  offset="0" style="stop-color:#A4D5E7"/>
	</linearGradient>
	<path fill="url(#SVGID_2_)" d="M33.512,93.618c-2.371,1.697-3.721,0.863-5.022,0.004c-0.509-0.338-0.062-0.814,0.221-0.967
		C30.363,91.766,31.435,93.211,33.512,93.618"/>
	<linearGradient id="SVGID_3_" gradientUnits="userSpaceOnUse" x1="35.1289" y1="94.4868" x2="39.6641" y2="94.4868">
		<stop  offset="0" style="stop-color:#FFFFFF"/>
		<stop  offset="0" style="stop-color:#A4D5E7"/>
	</linearGradient>
	<path fill="url(#SVGID_3_)" d="M39.664,94.481c-1.719,1.529-3.131,1.043-4.535-0.543C36.906,92.866,38.189,94.45,39.664,94.481"/>
	<path fill="#C3E11E" d="M153.136,90.315c-0.362,0.023-0.723,0.048-1.085,0.072c-1.535-1.466-1.591-2.88,0.104-4.398
		C153.722,87.27,152.663,88.965,153.136,90.315"/>
	<path fill="#CDE354" d="M143.5,60.147c0.453,1.551,2.25,2.724,1.281,4.812C143.362,63.514,142.21,62.199,143.5,60.147"/>
	<linearGradient id="SVGID_4_" gradientUnits="userSpaceOnUse" x1="67.0273" y1="129.4761" x2="71.1328" y2="129.4761">
		<stop  offset="0" style="stop-color:#FFFFFF"/>
		<stop  offset="0" style="stop-color:#A4D5E7"/>
	</linearGradient>
	<path fill="url(#SVGID_4_)" d="M67.027,128.9c1.822-0.344,3-0.453,4.105,0.172c-0.207,1.531-1.137,1.331-1.898,1.102
		C68.602,129.981,68.056,129.512,67.027,128.9"/>
	<path fill="#C5E129" d="M150.719,81.656c0.413,0.566,1.405,0.68,0.991,1.581c-0.151,0.326-0.598,0.513-0.91,0.766
		c-0.316-0.594-0.659-1.176-0.909-1.795C149.867,82.145,150.413,81.855,150.719,81.656"/>
	<linearGradient id="SVGID_5_" gradientUnits="userSpaceOnUse" x1="70.8374" y1="132.0347" x2="72.8101" y2="132.0347">
		<stop  offset="0" style="stop-color:#FFFFFF"/>
		<stop  offset="0" style="stop-color:#A4D5E7"/>
	</linearGradient>
	<path fill="url(#SVGID_5_)" d="M71.548,131.293c0.598-0.016,1.229-0.019,1.262,0.716c0.012,0.261-0.537,0.812-0.63,0.769
		c-0.467-0.203-1.02-0.469-1.252-0.878C70.591,131.301,71.285,131.426,71.548,131.293"/>
	<path fill="#FEFEFE" d="M149.543,94.702c1.71,1.002,1.147,2.672,1.305,4.486c-2.469-1.188-1.478-2.969-1.238-4.545L149.543,94.702"
		/>
	<path fill="#1F98C3" d="M333.258,92.555c-1.799,0.545-2.174,1.635-2.461,3.049c-0.744,3.682-1.564,7.352-2.125,11.061
		c-0.502,3.345-1.221,6.103-5.08,4.613c-12.498-0.422-20.922,8.536-20.367,21.106c0.299,6.776,5.705,10.714,12.281,8.883
		c1.383-0.388,2.742-0.938,4.025-1.583c1.686-0.852,2.826-1.617,4.75,0.317c2.49,2.492,6.203,0.852,6.891-2.583
		c2.662-13.308,5.328-26.62,7.938-39.941C340.422,90.768,339.982,90.52,333.258,92.555z M326.146,118.434
		c-0.943,4.974-1.734,9.984-2.945,14.891c-0.875,3.552-4.193,3.25-6.781,2.974c-3.912-0.419-4.529-3.477-4.342-6.805
		c0.225-3.352,1.014-6.567,2.539-9.57c1.867-3.672,6.516-5.479,10.318-4.227C326.553,116.231,326.359,117.295,326.146,118.434z"/>
	<path fill="#1F98C3" d="M294.758,132.72c0.776-4.997,2.023-9.927,2.678-14.935c0.557-4.284-1.198-6.128-5.531-6.492
		c-5.209-0.44-9.975,1.317-14.732,3.099c-1.119,0.419-1.661,1.034-1.336,2.269c0.386,1.461,1.297,1.091,2.359,0.867
		c2.115-0.448,4.258-0.862,6.409-1.019c1.891-0.136,4.104-0.091,3.972,2.677c-0.107,2.292-0.336,4.644-3.828,4.323
		c-3.031-0.278-6.089,0.164-8.961,1.269c-5.045,1.935-8.214,9.091-6.154,13.708c1.562,3.495,6.584,4.237,12.006,1.758
		c0.919-0.422,1.805-0.914,2.7-1.391c0.703-0.372,1.089-0.255,1.792,0.336c4.239,3.542,8.352,3.062,12.817-1.63
		C294.391,136.942,294.131,136.77,294.758,132.72z M280.891,136.416c-2.38,0.211-2.781-1.263-2.713-3.263
		c0.141-4.214,2.278-6.276,6.445-6.253c1.471,0.008,2.393,0.065,2.268,2.042C286.561,134.173,284.834,136.501,280.891,136.416z"/>
	<path fill="#1F98C3" d="M238.266,132.33c0.812-4.849,2.004-9.638,2.64-14.505c0.563-4.305-1.171-6.154-5.491-6.529
		c-5.207-0.45-9.974,1.3-14.731,3.081c-1.097,0.409-1.706,0.984-1.386,2.247c0.366,1.44,1.242,1.178,2.335,0.914
		c2.523-0.617,5.051-1.32,7.704-1.041c1.862,0.197,3.141,1.06,2.688,3.075c-0.364,1.622,0.093,3.961-2.888,3.909
		c-2.3-0.039-4.64,0.148-6.898,0.567c-6.258,1.156-9.316,4.737-9.637,10.979c-0.215,4.188,1.934,6.469,6.185,6.638
		c2.858,0.112,5.362-0.911,7.862-2.133c0.841-0.411,1.478-1.641,2.95-0.391c4.273,3.636,8.246,3.136,13.402-2.122
		C237.344,138.309,237.784,135.215,238.266,132.33z M224.534,136.416c-2.09,0.269-2.918-0.797-2.913-2.992
		c0.015-4.328,1.957-6.453,6.203-6.481c1.187-0.003,2.582-0.519,2.566,1.727C230.355,133.708,228.569,136.314,224.534,136.416z"/>
	<path fill="#1F98C3" d="M224.187,64.116c4.418-0.702,8.931-0.448,13.332-1.488c2.864-0.676,3.669-2.254,3.278-5.008
		c-0.82-5.781-4.555-8.959-10.809-8.995c-11.372-0.064-19.169,8.422-18.985,20.667c0.091,6.123,3.074,9.283,9.263,9.705
		c6.027,0.413,11.293-1.91,16.398-4.734c0.887-0.488,2.023-1.066,1.332-2.267c-0.571-0.992-1.555-0.088-2.328,0.074
		c-1.126,0.232-2.22,0.63-3.348,0.871c-2.821,0.599-5.665,1.416-8.551,0.574c-3.399-0.995-4.07-3.584-3.954-6.801
		C219.937,63.315,222.414,64.398,224.187,64.116z M223.117,55.312c1.319-2.154,3.448-2.637,5.68-2.208
		c2.336,0.447,3.046,2.398,3.351,4.531c0.273,1.931-0.257,3.043-2.473,2.969c-2.737-0.092-5.477-0.022-8.406-0.022
		C221.483,58.352,222.214,56.792,223.117,55.312z"/>
	<path fill="#1F98C3" d="M270.879,50.612c-1.763-1.352-3.863-1.866-6.086-1.977c-11.466-0.569-19.496,7.41-19.86,19.766
		c-0.206,6.996,3.059,10.434,10.094,10.634c4.61,0.135,8.833-1.297,12.832-3.388c1.548-0.809,4.632-1.332,3.969-3.151
		c-0.8-2.193-3.078,0.096-4.714,0.316c-2.848,0.383-5.638,1.426-8.563,0.897c-3.613-0.656-4.858-2.984-4.866-6.542
		c-0.008-3.9,2.769-2.852,4.831-3.066c3.157-0.33,6.367-0.33,9.488-0.865c2.418-0.414,5.903-0.004,6.57-3.031
		C275.381,56.551,274.039,53.034,270.879,50.612z M262.608,60.647c-2.41-0.174-4.844-0.031-7.336-0.031
		c0.004-2.307,0.922-4.094,2.09-5.741c1.22-1.724,3.094-2.017,5.04-1.836c1.819,0.17,2.805,1.414,3.309,3.022
		C266.582,58.831,266.461,60.924,262.608,60.647z"/>
	<path fill="#F9FAFA" d="M119.148,67.635c-0.352-0.831-0.702-1.659-1.053-2.487c0.355-0.33-0.25-1.926,1.156-0.879
		c0.288,0.874,0.577,1.745,0.866,2.617L119.148,67.635z"/>
	<g>
		<linearGradient id="SVGID_6_" gradientUnits="userSpaceOnUse" x1="137.4116" y1="73.6675" x2="139.0156" y2="73.6675">
			<stop  offset="0" style="stop-color:#EDF6BD"/>
			<stop  offset="1" style="stop-color:#C3E121"/>
		</linearGradient>
		<path fill="url(#SVGID_6_)" d="M138.839,73.926c0.057-0.107,0.117-0.211,0.177-0.309c-0.473-0.441-0.945-0.883-1.32-1.355
			c0.145,0.389,0.074,0.87-0.284,1.469c0.115-0.048,0.229-0.094,0.342-0.145c0.751,0.402,1.109,0.914,1.244,1.487
			C138.945,74.691,138.894,74.307,138.839,73.926z"/>
		<linearGradient id="SVGID_7_" gradientUnits="userSpaceOnUse" x1="138.7866" y1="76.4238" x2="139.4141" y2="76.4238">
			<stop  offset="0" style="stop-color:#EDF6BD"/>
			<stop  offset="1" style="stop-color:#C3E121"/>
		</linearGradient>
		<path fill="url(#SVGID_7_)" d="M138.787,77.225c0.24,0.004,0.444,0.072,0.627,0.181c-0.151-0.648-0.266-1.305-0.362-1.965
			C139.094,75.999,138.973,76.602,138.787,77.225z"/>
		<linearGradient id="SVGID_8_" gradientUnits="userSpaceOnUse" x1="85.1343" y1="71.7485" x2="162.1763" y2="71.7485">
			<stop  offset="0" style="stop-color:#EDF6BD"/>
			<stop  offset="1" style="stop-color:#C3E121"/>
		</linearGradient>
		<path fill="url(#SVGID_8_)" d="M153.136,90.315c-0.382-0.284-0.742-0.277-1.085,0.072c-1.372,1.106-2.996,2.067-2.52,4.247
			c-1.109-0.008-0.642-1.58-1.629-1.709c-0.395-1.135,0.522-2.596-0.868-3.48c0,0,0,0,0-0.002l0,0
			c-0.573-1.74-1.147-3.48-1.722-5.223l0,0c0.054-1.988-1.009-3.543-1.997-5.126c-0.792-2.057-1.585-4.113-2.378-6.172l0,0
			c-0.567-1.742-1.137-3.483-1.706-5.225l0,0l0,0c-0.291-1.123,1.037-2.371-0.263-3.416c0,0,0,0-0.002,0
			c0.002,0,0.002-0.002,0.002-0.002l-1.734-3.478l0,0c-0.581-1.159-1.161-2.319-1.742-3.479l0,0c-0.52-0.9-1.036-1.801-1.557-2.703
			l0,0l-1.042-2.513l-1.511-2.672c-0.121-0.655-0.117-1.367-0.844-1.725l0,0c0,0,0,0,0.001,0c-0.369-0.853-0.738-1.708-1.105-2.564
			l0,0c0.147-1.733-1.041-2.926-1.75-4.312c0,0,0,0,0-0.002c-0.523-1.103-0.594-2.529-2.294-3.06
			c-0.098,1.062-0.186,2.02-0.273,2.977c-1.016-0.598-1.42-3.502-3.292-0.871c-0.004-1.249-0.287-2.405-1.095-3.393
			c0.082-0.974,0.359-2-0.68-2.691l-1.042-2.556c0,0-0.001,0-0.004,0c0.002,0,0.002,0,0.002,0c-0.422-0.934-0.577-2.042-1.667-2.535
			c-3.111-4.695-5.607-9.764-7.529-14.991c-0.893-2.43-3.288-1.044-3.977-2.766c-0.967,1.073-0.797,2.543-1.238,3.691
			c-1.172,3.049,1.294,5.362,1.312,7.94c-5.249-4.436-7.733-10.586-10.651-16.465c-0.615-1.237-1.736-2.734-2.848-1.344
			c-2.043,2.555-2.453,0.074-3.509-0.699c-1.366-1-1.147-3.288-3.768-4.065c2.823,7.996,5.354,15.582,8.191,23.051
			c1.691,4.449,2.034,9.387,4.855,13.418c0.284,0.85,0.566,1.702,0.85,2.553h0.001h-0.001c-0.863,0.595-0.901,1.184,0.012,1.767
			c0,0.002,0,0.002-0.002,0.002c0.207,1.353,0.698,2.568,1.737,3.512l0,0c0.27,1.173-0.402,2.59,0.892,3.504
			c0.188,1.341,0.698,2.521,1.709,3.455c0.068,1.148,0.137,2.295,0.205,3.444c0.506,0.879,1.014,1.758,1.52,2.638l0,0
			c0.073,0.569,0.147,1.139,0.219,1.707c0,0,0,0,0.002,0c-0.002,0-0.002,0-0.002,0.002c-0.129,1.445,0.566,2.535,1.522,3.513l0,0
			l0,0c-0.473,0.898-0.543,1.76,0.232,2.543l0,0l1.73,3.514c-1.056,1.396-0.465,2.494,0.637,3.498l0,0
			c0.28,0.854,0.559,1.707,0.84,2.562c-0.719,1.527,0.684,2.362,1.145,3.504l0,0c-0.004,1.211-0.689,2.545,0.635,3.516
			c0,0,0,0,0.001,0c-0.001,0-0.001,0-0.001,0c0.365,0.855,0.732,1.711,1.098,2.569c-0.077,0.949-0.506,1.984,0.637,2.641l0.242,2.58
			l0,0c0.289,1.151,0.576,2.301,0.865,3.452c-0.488,1.354,0.963,2.225,0.866,3.48c-0.436,1.119,0.455,1.797,0.876,2.631l0,0
			c0.202,0.883,0.405,1.762,0.608,2.645h-0.002c0.375,0.85,0.75,1.699,1.125,2.549l-0.133,1.619
			c4.881-1.264,7.984,2.11,11.608,4.311c2.641,1.604,5.082,3.581,7.354,5.495c4.122,3.481,6.672,8.644,11.148,11.898
			c0.824,0.602,0.849,1.339,1.297,1.938c3.294,4.414-0.555,7.555-1.843,11.144c1.219,1.461,2.074,3.758,4.629,2.461
			c0.659-0.336-1.048-2.516,1.062-2.242c3.028,0.396,2.789-1.198,2.751-3.37c-0.075-4.263,0.93-4.891,4.597-3.122
			C164.859,118.462,159.062,104.377,153.136,90.315z M119.048,65.764c-0.126-0.124-0.279-0.234-0.447-0.34
			c0.121-0.457-0.143-1.488,0.595-1.035C118.935,64.918,118.9,65.371,119.048,65.764z M119.445,66.461
			c-0.008-0.048-0.023-0.098-0.039-0.145c0.033,0.035,0.066,0.073,0.103,0.108C119.488,66.436,119.466,66.449,119.445,66.461z
			 M139.887,79.006c-0.516-0.574-1.027-1.151-1.54-1.725c-0.386-1.162,0.477-2.652-0.938-3.541
			c-0.279-0.663-0.555-1.324-0.833-1.987c0.005-0.008,0.013-0.013,0.018-0.02c0.05-0.121,0.089-0.236,0.115-0.349
			c0.258,0.117,0.487,0.246,0.656,0.4c-0.443-0.736-0.595-1.57-0.141-2.605c0.073-0.035,0.147-0.068,0.224-0.098
			c-0.222,1.863,0.992,3.246,1.81,4.76C140.141,75.483,140.081,77.237,139.887,79.006z M144.512,91.975
			c-0.54,0.254-0.977-0.197-1.196-0.742c-0.292-0.581-0.581-1.16-0.87-1.741c0.433-1.337-0.07-2.445-0.87-3.477
			c-0.289-0.871-0.58-1.74-0.869-2.609l0.176-2.523v0.002c0.875,1.754-0.028,4.258,2.273,5.41c0.077-0.012,0.144-0.034,0.215-0.049
			c-0.563,1.6-0.758,3.112,1.098,4.116C144.141,90.92,145.512,91.5,144.512,91.975z M149.844,95.147
			c0.207,0.492,0.125,1.053,0.19,1.578C149.925,96.208,149.987,95.657,149.844,95.147z"/>
	</g>
</g>
</svg>
